<svg width="1080" height="2061" viewBox="0 0 1080 2061" fill="none" xmlns="http://www.w3.org/2000/svg">
<g clip-path="url(#clip0_96_2)">
<rect width="1080" height="2061" fill="white"/>
<path fill-rule="evenodd" clip-rule="evenodd" d="M1051.88 1009.17C1122.16 1004.37 1190.14 913.478 1249.69 951.099C1307.82 987.818 1260.82 1083.51 1275.79 1150.61C1288.61 1208.07 1333.69 1255.14 1330.63 1313.93C1326.99 1384.13 1316.46 1468.13 1257.33 1506.13C1198.15 1544.16 1122.05 1498.1 1051.88 1493.09C988.575 1488.56 911.894 1522.8 866.728 1478.21C820.734 1432.79 842.925 1354.69 846.343 1290.15C848.639 1246.79 879.477 1211.79 883.128 1168.53C888.643 1103.17 825.09 1021.88 872.78 976.846C917.994 934.15 989.841 1013.41 1051.88 1009.17Z" fill="#58B7F1" fill-opacity="0.8"/>
<path fill-rule="evenodd" clip-rule="evenodd" d="M1139.92 43.7716C1179.84 48.175 1213.34 71.9439 1252.69 80.0003C1314.12 92.5777 1388.96 62.9087 1435.98 104.388C1480.52 143.674 1472.17 215.961 1474.13 275.319C1476.13 336.174 1493.61 413.162 1447.46 452.878C1396.79 496.487 1313.03 442.881 1250.85 467.464C1202.25 486.684 1192.06 570.783 1139.92 574.481C1088.95 578.096 1063.56 509.785 1019.51 483.87C975.964 458.245 918.254 459.966 883.295 423.482C845.466 384.002 809.746 329.087 819.683 275.319C829.828 220.431 896.245 197.926 932.783 155.729C961.478 122.59 973.25 74.2767 1011.81 53.4331C1050.14 32.7182 1096.62 38.9955 1139.92 43.7716Z" fill="#58B7F1" fill-opacity="0.8"/>
<path fill-rule="evenodd" clip-rule="evenodd" d="M-119.118 220.897C-67.4513 230.058 -40.3934 287.903 6.8165 310.808C59.186 336.216 140.378 311.923 170.792 361.553C200.932 410.736 141.913 471.268 140.485 528.933C139.107 584.585 193.938 645.57 162.621 691.596C130.505 738.796 50.973 709.528 0.0462952 735.332C-46.821 759.08 -68.3944 820.656 -119.118 834.351C-173.059 848.916 -232.038 835.975 -282.296 811.565C-334.278 786.319 -392.536 750.905 -406.426 694.81C-420.648 637.373 -349.493 588.039 -352.279 528.933C-355.294 465.009 -440.503 415.184 -422.506 353.772C-405.792 296.738 -328.217 284.901 -273.776 261.057C-224.143 239.319 -172.472 211.437 -119.118 220.897Z" fill="#58B7F1" fill-opacity="0.8"/>
<path fill-rule="evenodd" clip-rule="evenodd" d="M57.1815 1432.53C147.351 1424.25 220.512 1513.73 262.79 1593.81C296.111 1656.92 249.113 1728.07 250.888 1799.41C252.76 1874.67 319.017 1955.71 273.281 2015.51C227.121 2075.87 132.708 2060.99 57.1815 2052.68C-8.55072 2045.45 -62.6989 2011.71 -116.07 1972.66C-184.528 1922.58 -289.55 1884.24 -288.998 1799.41C-288.445 1714.59 -172.044 1690.1 -113.826 1628.41C-51.9905 1562.87 -32.5423 1440.78 57.1815 1432.53Z" fill="#58B7F1" fill-opacity="0.8"/>
</g>
<defs>
<clipPath id="clip0_96_2">
<rect width="1080" height="2061" fill="white"/>
</clipPath>
</defs>
</svg>
