<svg width="42" height="42" viewBox="0 0 42 42" fill="none" xmlns="http://www.w3.org/2000/svg">
<path d="M34.125 5.25H30.1875V3.9375C30.1875 3.5894 30.0492 3.25556 29.8031 3.00942C29.5569 2.76328 29.2231 2.625 28.875 2.625C28.5269 2.625 28.1931 2.76328 27.9469 3.00942C27.7008 3.25556 27.5625 3.5894 27.5625 3.9375V5.25H14.4375V3.9375C14.4375 3.5894 14.2992 3.25556 14.0531 3.00942C13.8069 2.76328 13.4731 2.625 13.125 2.625C12.7769 2.625 12.4431 2.76328 12.1969 3.00942C11.9508 3.25556 11.8125 3.5894 11.8125 3.9375V5.25H7.875C7.17881 5.25 6.51113 5.52656 6.01884 6.01884C5.52656 6.51113 5.25 7.17881 5.25 7.875V34.125C5.25 34.8212 5.52656 35.4889 6.01884 35.9812C6.51113 36.4734 7.17881 36.75 7.875 36.75H34.125C34.8212 36.75 35.4889 36.4734 35.9812 35.9812C36.4734 35.4889 36.75 34.8212 36.75 34.125V7.875C36.75 7.17881 36.4734 6.51113 35.9812 6.01884C35.4889 5.52656 34.8212 5.25 34.125 5.25ZM11.8125 7.875V9.1875C11.8125 9.5356 11.9508 9.86944 12.1969 10.1156C12.4431 10.3617 12.7769 10.5 13.125 10.5C13.4731 10.5 13.8069 10.3617 14.0531 10.1156C14.2992 9.86944 14.4375 9.5356 14.4375 9.1875V7.875H27.5625V9.1875C27.5625 9.5356 27.7008 9.86944 27.9469 10.1156C28.1931 10.3617 28.5269 10.5 28.875 10.5C29.2231 10.5 29.5569 10.3617 29.8031 10.1156C30.0492 9.86944 30.1875 9.5356 30.1875 9.1875V7.875H34.125V13.125H7.875V7.875H11.8125ZM34.125 34.125H7.875V15.75H34.125V34.125ZM27.8348 20.0714C27.9569 20.1933 28.0537 20.3381 28.1197 20.4974C28.1858 20.6567 28.2198 20.8275 28.2198 21C28.2198 21.1725 28.1858 21.3433 28.1197 21.5026C28.0537 21.6619 27.9569 21.8067 27.8348 21.9286L19.9598 29.8036C19.8379 29.9256 19.6932 30.0224 19.5339 30.0885C19.3745 30.1545 19.2037 30.1885 19.0312 30.1885C18.8588 30.1885 18.688 30.1545 18.5286 30.0885C18.3693 30.0224 18.2246 29.9256 18.1027 29.8036L14.1652 25.8661C13.9189 25.6198 13.7805 25.2858 13.7805 24.9375C13.7805 24.5892 13.9189 24.2552 14.1652 24.0089C14.4114 23.7626 14.7455 23.6243 15.0938 23.6243C15.442 23.6243 15.7761 23.7626 16.0223 24.0089L19.0312 27.0195L25.9777 20.0714C26.0996 19.9494 26.2443 19.8526 26.4036 19.7865C26.563 19.7205 26.7338 19.6865 26.9062 19.6865C27.0787 19.6865 27.2495 19.7205 27.4089 19.7865C27.5682 19.8526 27.7129 19.9494 27.8348 20.0714Z" fill="black"/>
</svg>
