<svg width="45" height="45" viewBox="0 0 45 45" fill="none" xmlns="http://www.w3.org/2000/svg">
<path d="M37.4063 39.375C33.375 39.375 29.4456 38.4762 25.6181 36.6788C21.7906 34.8813 18.4 32.5063 15.4462 29.5538C12.4925 26.6012 10.1175 23.2106 8.32125 19.3819C6.525 15.5531 5.62625 11.6238 5.625 7.59375C5.625 7.03125 5.8125 6.5625 6.1875 6.1875C6.5625 5.8125 7.03125 5.625 7.59375 5.625H15.1875C15.625 5.625 16.0156 5.76562 16.3594 6.04687C16.7031 6.32812 16.9062 6.6875 16.9688 7.125L18.1875 13.6875C18.25 14.125 18.2419 14.5238 18.1631 14.8837C18.0844 15.2438 17.905 15.5637 17.625 15.8438L13.125 20.4375C14.4375 22.6875 16.0781 24.7969 18.0469 26.7656C20.0156 28.7344 22.1875 30.4375 24.5625 31.875L28.9688 27.4688C29.25 27.1875 29.6175 26.9769 30.0713 26.8369C30.525 26.6969 30.97 26.6575 31.4062 26.7188L37.875 28.0312C38.3125 28.125 38.6719 28.3363 38.9531 28.665C39.2344 28.9937 39.375 29.3762 39.375 29.8125V37.4063C39.375 37.9688 39.1875 38.4375 38.8125 38.8125C38.4375 39.1875 37.9688 39.375 37.4063 39.375Z" fill="black"/>
</svg>
