<svg width="17" height="17" viewBox="0 0 17 17" fill="none" xmlns="http://www.w3.org/2000/svg">
<path d="M4.25 13.4584V14.1667C4.25 14.3674 4.182 14.5357 4.046 14.6717C3.91 14.8077 3.74189 14.8755 3.54167 14.875H2.83334C2.63264 14.875 2.46429 14.807 2.32829 14.671C2.19229 14.535 2.12453 14.3669 2.125 14.1667V8.50002L3.6125 4.25002C3.68334 4.03752 3.81013 3.86634 3.99288 3.73648C4.17563 3.60662 4.37939 3.54169 4.60417 3.54169H12.3958C12.6201 3.54169 12.8239 3.60662 13.0071 3.73648C13.1904 3.86634 13.3171 4.03752 13.3875 4.25002L14.875 8.50002V14.1667C14.875 14.3674 14.8072 14.5357 14.6717 14.6717C14.5362 14.8077 14.3678 14.8755 14.1667 14.875H13.4583C13.2576 14.875 13.0893 14.807 12.9533 14.671C12.8173 14.535 12.7495 14.3669 12.75 14.1667V13.4584H4.25ZM4.10834 7.08335H12.8917L12.1479 4.95835H4.85209L4.10834 7.08335ZM5.3125 11.3334C5.60764 11.3334 5.85863 11.2299 6.06546 11.0231C6.27229 10.8163 6.37547 10.5655 6.375 10.2709C6.375 9.97571 6.27159 9.72473 6.06475 9.5179C5.85792 9.31106 5.60717 9.20788 5.3125 9.20835C5.01736 9.20835 4.76638 9.31177 4.55954 9.5186C4.35271 9.72544 4.24953 9.97619 4.25 10.2709C4.25 10.566 4.35342 10.817 4.56025 11.0238C4.76709 11.2306 5.01784 11.3338 5.3125 11.3334ZM11.6875 11.3334C11.9826 11.3334 12.2336 11.2299 12.4405 11.0231C12.6473 10.8163 12.7505 10.5655 12.75 10.2709C12.75 9.97571 12.6466 9.72473 12.4398 9.5179C12.2329 9.31106 11.9822 9.20788 11.6875 9.20835C11.3924 9.20835 11.1414 9.31177 10.9345 9.5186C10.7277 9.72544 10.6245 9.97619 10.625 10.2709C10.625 10.566 10.7284 10.817 10.9353 11.0238C11.1421 11.2306 11.3928 11.3338 11.6875 11.3334Z" fill="black"/>
</svg>
