<svg width="40" height="40" viewBox="0 0 40 40" fill="none" xmlns="http://www.w3.org/2000/svg">
<path d="M31.2 24.6C31.7834 23.1833 32.1 21.6667 32.1 20C32.1 18.8 31.9167 17.65 31.6 16.5833C30.5167 16.8333 29.3834 16.9667 28.2 16.9667C25.7767 16.9693 23.3882 16.3892 21.2359 15.2754C19.0837 14.1615 17.2308 12.5466 15.8334 10.5667C14.3385 14.1836 11.5186 17.093 7.95004 18.7C7.88337 19.1167 7.88337 19.5667 7.88337 20C7.88337 21.5912 8.19678 23.1668 8.8057 24.6368C9.41462 26.1069 10.3071 27.4426 11.4323 28.5678C13.7046 30.8401 16.7865 32.1167 20 32.1167C21.75 32.1167 23.4334 31.7333 24.95 31.05C25.9 32.8667 26.3334 33.7667 26.3 33.7667C23.5667 34.6833 21.45 35.1333 20 35.1333C15.9667 35.1333 12.1167 33.55 9.28337 30.7C7.56004 28.982 6.27899 26.8717 5.55004 24.55H3.33337V16.9667H5.15004C5.70044 14.2875 6.96586 11.8073 8.81202 9.78932C10.6582 7.77129 13.0162 6.29068 15.6359 5.50459C18.2556 4.71851 21.0393 4.65628 23.6915 5.32451C26.3437 5.99273 28.7655 7.36649 30.7 9.3C32.8004 11.3921 34.2331 14.0602 34.8167 16.9667H36.6667V24.55H36.5667L30.6334 30L21.8 29V26.2167H29.85L31.2 24.6ZM15.45 19.6167C15.95 19.6167 16.4334 19.8167 16.7834 20.1833C17.1351 20.5379 17.3325 21.0172 17.3325 21.5167C17.3325 22.0161 17.1351 22.4954 16.7834 22.85C16.4334 23.2 15.95 23.4 15.45 23.4C14.4 23.4 13.55 22.5667 13.55 21.5167C13.55 20.4667 14.4 19.6167 15.45 19.6167ZM24.5334 19.6167C25.5834 19.6167 26.4167 20.4667 26.4167 21.5167C26.4167 22.5667 25.5834 23.4 24.5334 23.4C23.4834 23.4 22.6334 22.5667 22.6334 21.5167C22.6334 21.0128 22.8336 20.5295 23.1899 20.1732C23.5462 19.8168 24.0295 19.6167 24.5334 19.6167Z" fill="black"/>
</svg>
