<svg width="37" height="37" viewBox="0 0 37 37" fill="none" xmlns="http://www.w3.org/2000/svg">
<path d="M22.7411 4.74988C22.6816 4.70218 22.6133 4.66672 22.54 4.64554C22.4668 4.62436 22.3901 4.61789 22.3143 4.62649C22.2385 4.63508 22.1652 4.65858 22.0986 4.69564C22.0319 4.73269 21.9733 4.78256 21.926 4.84238L16.6037 11.5625H13.6542L20.1141 3.40632C20.3506 3.10773 20.6437 2.85881 20.9766 2.67385C21.3095 2.4889 21.6757 2.37156 22.0541 2.32858C22.4326 2.28561 22.8158 2.31783 23.1817 2.42342C23.5476 2.529 23.8891 2.70585 24.1864 2.94382L30.1377 7.71103C30.7004 8.16191 31.0742 8.80682 31.1859 9.51918C31.2976 10.2315 31.139 10.9599 30.7412 11.5613H27.7188L28.7675 10.345C28.8183 10.2861 28.8567 10.2177 28.8804 10.1437C28.9041 10.0697 28.9127 9.99163 28.9055 9.91424C28.8984 9.83685 28.8758 9.76169 28.8389 9.69326C28.8021 9.62482 28.7519 9.56451 28.6912 9.51594L25.7959 7.1965L22.3642 11.5625H19.4227L23.9899 5.75119L22.7411 4.74988ZM6.9375 8.09375C6.01753 8.09375 5.13524 8.45921 4.48472 9.10973C3.83421 9.76024 3.46875 10.6425 3.46875 11.5625V28.3281C3.46875 29.7081 4.01693 31.0315 4.99271 32.0073C5.96849 32.9831 7.29192 33.5313 8.67188 33.5313H28.3281C29.7081 33.5313 31.0315 32.9831 32.0073 32.0073C32.9831 31.0315 33.5312 29.7081 33.5312 28.3281V17.9219C33.5312 16.5419 32.9831 15.2185 32.0073 14.2427C31.0315 13.2669 29.7081 12.7188 28.3281 12.7188H6.9375C6.63084 12.7188 6.33675 12.5969 6.11991 12.3801C5.90307 12.1633 5.78125 11.8692 5.78125 11.5625C5.78125 11.2558 5.90307 10.9618 6.11991 10.7449C6.33675 10.5281 6.63084 10.4063 6.9375 10.4063H12.2331L14.0785 8.09375H6.9375ZM24.2812 21.9688H27.75C28.0567 21.9688 28.3508 22.0906 28.5676 22.3074C28.7844 22.5243 28.9062 22.8183 28.9062 23.125C28.9062 23.4317 28.7844 23.7258 28.5676 23.9426C28.3508 24.1594 28.0567 24.2813 27.75 24.2813H24.2812C23.9746 24.2813 23.6805 24.1594 23.4637 23.9426C23.2468 23.7258 23.125 23.4317 23.125 23.125C23.125 22.8183 23.2468 22.5243 23.4637 22.3074C23.6805 22.0906 23.9746 21.9688 24.2812 21.9688Z" fill="black"/>
</svg>
