<svg width="13" height="15" viewBox="0 0 13 15" fill="none" xmlns="http://www.w3.org/2000/svg">
<path d="M6.49999 7.5C5.90416 7.5 5.39409 7.25521 4.96978 6.76562C4.54548 6.27604 4.33332 5.6875 4.33332 5C4.33332 4.3125 4.54548 3.72396 4.96978 3.23438C5.39409 2.74479 5.90416 2.5 6.49999 2.5C7.09582 2.5 7.60589 2.74479 8.0302 3.23438C8.4545 3.72396 8.66666 4.3125 8.66666 5C8.66666 5.6875 8.4545 6.27604 8.0302 6.76562C7.60589 7.25521 7.09582 7.5 6.49999 7.5ZM2.16666 12.5V10.75C2.16666 10.3958 2.24574 10.0702 2.40391 9.77313C2.56207 9.47604 2.77188 9.24958 3.03332 9.09375C3.59305 8.77083 4.1618 8.52854 4.73957 8.36688C5.31735 8.20521 5.90416 8.12458 6.49999 8.125C7.09582 8.125 7.68263 8.20583 8.26041 8.3675C8.83818 8.52917 9.40693 8.77125 9.96666 9.09375C10.2285 9.25 10.4384 9.47667 10.5966 9.77375C10.7548 10.0708 10.8337 10.3963 10.8333 10.75V12.5H2.16666Z" fill="black"/>
</svg>
