<svg width="45" height="45" viewBox="0 0 45 45" fill="none" xmlns="http://www.w3.org/2000/svg">
<g clip-path="url(#clip0_149_132)">
<path fill-rule="evenodd" clip-rule="evenodd" d="M42.516 0H2.484C1.1115 0 0 1.1115 0 2.484V42.516C0 43.8885 1.1115 45 2.484 45H24.0345V27.5738H18.171V20.7833H24.0345V15.7725C24.0345 9.9585 27.585 6.795 32.7712 6.795C35.2552 6.795 37.3882 6.9795 38.0115 7.06275V13.1378H34.416C31.5945 13.1378 31.05 14.4788 31.05 16.4453V20.781H37.7752L36.8978 27.5715H31.0477V45H42.516C43.8885 45 45 43.8885 45 42.516V2.484C45 1.1115 43.8885 0 42.516 0Z" fill="#699BF7"/>
</g>
<defs>
<clipPath id="clip0_149_132">
<rect width="45" height="45" fill="white"/>
</clipPath>
</defs>
</svg>
