<svg width="16" height="17" viewBox="0 0 16 17" fill="none" xmlns="http://www.w3.org/2000/svg">
<path d="M1.46667 7.93332C1.33333 9.63332 1.8 11.05 2.8 12.325C3.8 13.6 5.13333 14.1667 6.73333 14.1667H13.4C13.7333 14.1667 14.0667 14.025 14.3333 13.7417C14.6 13.4583 14.7333 13.1042 14.7333 12.75V12.1833C14.7333 11.7583 14.6667 11.2625 14.6 10.625H9.13333C8.46667 10.625 7.93333 10.3417 7.46667 9.84582C7 9.34998 6.73333 8.71248 6.73333 8.07498C6.73333 6.94165 7.2 6.16249 8.2 5.73749L11.4 4.24999C10.2667 3.39999 8.93333 2.90415 7.4 2.83332C5.93333 2.69165 4.6 3.18749 3.4 4.17915C2.2 5.17082 1.6 6.37498 1.46667 7.93332ZM8.06667 8.07498C8.06667 8.35832 8.2 8.64165 8.4 8.85415C8.6 9.06665 8.86667 9.20832 9.13333 9.20832H14.3333C13.9333 7.64999 13.3333 6.37498 12.4667 5.38332L8.73333 7.01248C8.26667 7.15415 8.06667 7.50832 8.06667 8.07498Z" fill="black"/>
</svg>
