<svg width="17" height="14" viewBox="0 0 17 14" fill="none" xmlns="http://www.w3.org/2000/svg">
<path d="M10.8375 8.74999C10.8375 8.93564 10.7479 9.11369 10.5885 9.24496C10.4291 9.37624 10.2129 9.44999 9.9875 9.44999C9.76206 9.44999 9.54586 9.37624 9.38646 9.24496C9.22705 9.11369 9.1375 8.93564 9.1375 8.74999C9.1375 8.56434 9.22705 8.38629 9.38646 8.25501C9.54586 8.12374 9.76206 8.04999 9.9875 8.04999C10.2129 8.04999 10.4291 8.12374 10.5885 8.25501C10.7479 8.38629 10.8375 8.56434 10.8375 8.74999ZM7.8625 8.74999C7.8625 8.93564 7.77295 9.11369 7.61354 9.24496C7.45413 9.37624 7.23793 9.44999 7.0125 9.44999C6.78706 9.44999 6.57086 9.37624 6.41146 9.24496C6.25205 9.11369 6.1625 8.93564 6.1625 8.74999C6.1625 8.56434 6.25205 8.38629 6.41146 8.25501C6.57086 8.12374 6.78706 8.04999 7.0125 8.04999C7.23793 8.04999 7.45413 8.12374 7.61354 8.25501C7.77295 8.38629 7.8625 8.56434 7.8625 8.74999Z" fill="black"/>
<path fill-rule="evenodd" clip-rule="evenodd" d="M8.5 5.60001C9.28902 5.60001 10.0457 5.34189 10.6036 4.88242C11.1616 4.42296 11.475 3.79979 11.475 3.15001C11.475 2.50023 11.1616 1.87706 10.6036 1.4176C10.0457 0.958136 9.28902 0.700012 8.5 0.700012C7.71098 0.700012 6.95428 0.958136 6.39636 1.4176C5.83844 1.87706 5.525 2.50023 5.525 3.15001C5.525 3.79979 5.83844 4.42296 6.39636 4.88242C6.95428 5.34189 7.71098 5.60001 8.5 5.60001ZM8.5 2.10001C8.83815 2.10001 9.16245 2.21064 9.40156 2.40755C9.64067 2.60446 9.775 2.87153 9.775 3.15001C9.775 3.42849 9.64067 3.69556 9.40156 3.89247C9.16245 4.08939 8.83815 4.20001 8.5 4.20001C8.16185 4.20001 7.83755 4.08939 7.59844 3.89247C7.35933 3.69556 7.225 3.42849 7.225 3.15001C7.225 2.87153 7.35933 2.60446 7.59844 2.40755C7.83755 2.21064 8.16185 2.10001 8.5 2.10001Z" fill="black"/>
<path d="M8.5 9.79999C8.95087 9.79999 9.38327 9.94749 9.70208 10.21C10.0209 10.4726 10.2 10.8287 10.2 11.2V12.25C10.2 12.6213 10.0209 12.9774 9.70208 13.2399C9.38327 13.5025 8.95087 13.65 8.5 13.65C8.04914 13.65 7.61673 13.5025 7.29792 13.2399C6.97911 12.9774 6.8 12.6213 6.8 12.25V11.2C6.8 10.8287 6.97911 10.4726 7.29792 10.21C7.61673 9.94749 8.04914 9.79999 8.5 9.79999Z" fill="black"/>
<path fill-rule="evenodd" clip-rule="evenodd" d="M12.75 7.70001C12.75 6.77175 12.3022 5.88152 11.5052 5.22514C10.7082 4.56876 9.62717 4.20001 8.5 4.20001C7.37283 4.20001 6.29183 4.56876 5.4948 5.22514C4.69777 5.88152 4.25 6.77175 4.25 7.70001V9.45001C4.25 9.91414 4.47388 10.3593 4.8724 10.6874C5.27091 11.0156 5.81141 11.2 6.375 11.2H10.625C11.1886 11.2 11.7291 11.0156 12.1276 10.6874C12.5261 10.3593 12.75 9.91414 12.75 9.45001V7.70001ZM5.95 7.70001C5.95 7.14306 6.21866 6.60891 6.69688 6.21509C7.1751 5.82126 7.8237 5.60001 8.5 5.60001C9.1763 5.60001 9.8249 5.82126 10.3031 6.21509C10.7813 6.60891 11.05 7.14306 11.05 7.70001V9.45001C11.05 9.54284 11.0052 9.63186 10.9255 9.6975C10.8458 9.76314 10.7377 9.80001 10.625 9.80001H6.375C6.26228 9.80001 6.15418 9.76314 6.07448 9.6975C5.99478 9.63186 5.95 9.54284 5.95 9.45001V7.70001Z" fill="black"/>
<path d="M13.175 3.15C12.9496 3.15 12.7334 3.07625 12.574 2.94497C12.4146 2.8137 12.325 2.63565 12.325 2.45C12.325 2.26435 12.4146 2.0863 12.574 1.95503C12.7334 1.82375 12.9496 1.75 13.175 1.75H14.875C15.1004 1.75 15.3166 1.82375 15.476 1.95503C15.6354 2.0863 15.725 2.26435 15.725 2.45C15.725 2.63565 15.6354 2.8137 15.476 2.94497C15.3166 3.07625 15.1004 3.15 14.875 3.15H13.175ZM2.125 3.15C1.89957 3.15 1.68337 3.07625 1.52396 2.94497C1.36455 2.8137 1.275 2.63565 1.275 2.45C1.275 2.26435 1.36455 2.0863 1.52396 1.95503C1.68337 1.82375 1.89957 1.75 2.125 1.75H3.825C4.05044 1.75 4.26664 1.82375 4.42604 1.95503C4.58545 2.0863 4.675 2.26435 4.675 2.45C4.675 2.63565 4.58545 2.8137 4.42604 2.94497C4.26664 3.07625 4.05044 3.15 3.825 3.15H2.125Z" fill="black"/>
<path d="M2.8985 2.83222L3.3031 1.81372L7.1485 2.41782L6.74305 3.43702L2.8985 2.83222ZM9.8515 2.41782L10.2569 3.43702L14.1015 2.83222L13.6969 1.81372L9.8515 2.41782Z" fill="black"/>
</svg>
