<svg width="16" height="16" viewBox="0 0 16 16" fill="none" xmlns="http://www.w3.org/2000/svg">
<path d="M9.77201 4.1736C9.77201 3.70099 9.58426 3.24773 9.25007 2.91354C8.91588 2.57935 8.46262 2.3916 7.99001 2.3916C7.51739 2.3916 7.06413 2.57935 6.72994 2.91354C6.39575 3.24773 6.20801 3.70099 6.20801 4.1736C6.20801 4.64622 6.39575 5.09948 6.72994 5.43367C7.06413 5.76786 7.51739 5.9556 7.99001 5.9556C8.46262 5.9556 8.91588 5.76786 9.25007 5.43367C9.58426 5.09948 9.77201 4.64622 9.77201 4.1736ZM2.01201 9.6H4.40401V7.2112L4.41041 7.0672C4.43121 6.8296 4.50481 6.6072 4.61841 6.4112H2.41281L2.31921 6.4168C2.12461 6.43973 1.94519 6.53328 1.81498 6.6797C1.68477 6.82613 1.61283 7.01525 1.61281 7.2112V9.2C1.61281 9.30609 1.65495 9.40783 1.72996 9.48284C1.80498 9.55786 1.90592 9.6 2.01201 9.6ZM14.392 9.2C14.392 9.30609 14.3499 9.40783 14.2748 9.48284C14.1998 9.55786 14.0981 9.6 13.992 9.6H11.5792V7.2112L11.5744 7.092C11.5569 6.85213 11.4853 6.61936 11.3648 6.4112H13.592C13.7881 6.41125 13.9773 6.4833 14.1237 6.61367C14.2702 6.74404 14.3637 6.92366 14.3864 7.1184L14.392 7.2112V9.2ZM10.7736 7.1184C10.7508 6.92352 10.6573 6.7438 10.5106 6.61341C10.364 6.48302 10.1746 6.41105 9.97841 6.4112H6.00401L5.91041 6.4168C5.71581 6.43973 5.53639 6.53328 5.40618 6.6797C5.27597 6.82613 5.20403 7.01525 5.20401 7.2112V9.6H10.7784V7.2112L10.7736 7.1184ZM11.98 2.8944C12.3859 2.8944 12.7752 3.05564 13.0622 3.34265C13.3492 3.62965 13.5104 4.01891 13.5104 4.4248C13.5104 4.83069 13.3492 5.21995 13.0622 5.50696C12.7752 5.79396 12.3859 5.9552 11.98 5.9552C11.574 5.9552 11.1846 5.79392 10.8976 5.50684C10.6105 5.21976 10.4492 4.83039 10.4492 4.4244C10.4492 4.01841 10.6105 3.62904 10.8976 3.34196C11.1846 3.05488 11.574 2.8944 11.98 2.8944ZM5.54321 4.424C5.54321 4.01811 5.38197 3.62885 5.09496 3.34185C4.80796 3.05484 4.41869 2.8936 4.01281 2.8936C3.60692 2.8936 3.21766 3.05484 2.93065 3.34185C2.64364 3.62885 2.48241 4.01811 2.48241 4.424C2.48241 4.82989 2.64364 5.21915 2.93065 5.50616C3.21766 5.79316 3.60692 5.9544 4.01281 5.9544C4.41869 5.9544 4.80796 5.79316 5.09496 5.50616C5.38197 5.21915 5.54321 4.82989 5.54321 4.424ZM2.00001 10.4C1.89392 10.4 1.79218 10.4421 1.71716 10.5172C1.64215 10.5922 1.60001 10.6939 1.60001 10.8V11.6C1.60001 12.1304 1.81072 12.6391 2.18579 13.0142C2.56087 13.3893 3.06957 13.6 3.60001 13.6H12.4C12.9304 13.6 13.4391 13.3893 13.8142 13.0142C14.1893 12.6391 14.4 12.1304 14.4 11.6V10.8C14.4 10.6939 14.3579 10.5922 14.2828 10.5172C14.2078 10.4421 14.1061 10.4 14 10.4H2.00001Z" fill="black"/>
</svg>
