<svg width="47" height="37" viewBox="0 0 47 37" fill="none" xmlns="http://www.w3.org/2000/svg">
<g clip-path="url(#clip0_56_75)">
<path d="M9.94373 14.7025L9.94252 14.7025C9.19155 14.7044 8.45882 14.958 7.90695 15.4268C7.35266 15.8978 7.02046 16.5549 7.0177 17.2617L7.0177 17.2617V17.2637V21.479C7.0177 22.1872 7.34932 22.8463 7.90444 23.3181C8.4571 23.7879 9.19159 24.0411 9.94373 24.0411C10.6959 24.0411 11.4304 23.7879 11.983 23.3181C12.5381 22.8463 12.8698 22.1872 12.8698 21.479V21.4389V21.4369L12.8698 17.2647L12.8698 17.263C12.8674 16.5564 12.5358 15.8993 11.982 15.4281C11.4307 14.959 10.6984 14.705 9.94764 14.7025V14.7025H9.94603L9.94373 14.7025Z" fill="black"/>
<path d="M9.94373 14.7025L9.94252 14.7025C9.19155 14.7044 8.45882 14.958 7.90695 15.4268C7.35266 15.8978 7.02046 16.5549 7.0177 17.2617L7.0177 17.2617V17.2637V21.479C7.0177 22.1872 7.34932 22.8463 7.90444 23.3181C8.4571 23.7879 9.19159 24.0411 9.94373 24.0411C10.6959 24.0411 11.4304 23.7879 11.983 23.3181C12.5381 22.8463 12.8698 22.1872 12.8698 21.479V21.4389V21.4369L12.8698 17.2647L12.8698 17.263C12.8674 16.5564 12.5358 15.8993 11.982 15.4281C11.4307 14.959 10.6984 14.705 9.94764 14.7025V14.7025H9.94603L9.94373 14.7025Z" stroke="black"/>
<path d="M9.94373 14.7025L9.94252 14.7025C9.19155 14.7044 8.45882 14.958 7.90695 15.4268C7.35266 15.8978 7.02046 16.5549 7.0177 17.2617L7.0177 17.2617V17.2637V21.479C7.0177 22.1872 7.34932 22.8463 7.90444 23.3181C8.4571 23.7879 9.19159 24.0411 9.94373 24.0411C10.6959 24.0411 11.4304 23.7879 11.983 23.3181C12.5381 22.8463 12.8698 22.1872 12.8698 21.479V21.4389V21.4369L12.8698 17.2647L12.8698 17.263C12.8674 16.5564 12.5358 15.8993 11.982 15.4281C11.4307 14.959 10.6984 14.705 9.94764 14.7025V14.7025H9.94603L9.94373 14.7025Z" stroke="white"/>
<path d="M5.54542 5.13831C5.79374 5.67772 6.16249 6.15062 6.61759 6.53827C3.67314 7.65853 1.5824 10.1556 1.56202 13.136H1.56201V13.1394L1.56198 18.5523L1.56204 18.5576C1.56854 19.1663 1.8562 19.7288 2.32905 20.1309C2.79954 20.5311 3.42123 20.7478 4.05771 20.7531L4.05771 20.7531H4.06181H5.6999H6.1999V20.2531V17.3156C6.1999 16.5064 6.57743 15.7102 7.2846 15.1091C7.99423 14.506 8.97178 14.1564 10.0048 14.1564C11.0378 14.1564 12.0153 14.506 12.725 15.1091C13.4321 15.7102 13.8097 16.5064 13.8097 17.3156V20.2531V20.7531H14.3097L15.9466 20.7531L15.95 20.7531C16.5871 20.7488 17.2097 20.5324 17.681 20.1321C18.1545 19.7298 18.4426 19.1667 18.4487 18.5573H18.4487V18.5523V13.1923V13.1921C18.4479 11.6169 17.8483 10.095 16.7573 8.85191C15.8786 7.85074 14.7193 7.07291 13.4022 6.5812C13.8594 6.19044 14.2249 5.71796 14.4681 5.18825L18.7988 5.18825L18.8001 5.18825C19.2298 5.18721 19.6548 5.04231 19.9794 4.76637C20.3065 4.48837 20.5104 4.09267 20.5119 3.65886L20.5119 3.64697L20.5114 3.6351C20.4921 3.19941 20.2804 2.8049 19.9495 2.52344L19.6255 2.90426L19.9495 2.52343C19.6207 2.24368 19.1935 2.08977 18.7564 2.07548L18.7483 2.07521H18.7401H18.7378H18.6683L18.6649 2.07619H14.3948C13.6475 0.525797 11.909 -0.5 9.94257 -0.5C7.96831 -0.5 6.22277 0.53441 5.48772 2.07619H1.21301C0.782584 2.07619 0.35663 2.22081 0.0314595 2.49721C-0.296184 2.77571 -0.5 3.17253 -0.5 3.60725C-0.5 4.04197 -0.296184 4.43879 0.0314595 4.71729C0.35663 4.99369 0.782584 5.13831 1.21301 5.13831H5.54542ZM10.0819 5.21735H9.94372H9.94027V5.21833C9.54371 5.21795 9.16123 5.11753 8.84167 4.93603C8.52177 4.75434 8.28593 4.50384 8.15069 4.22632C8.01633 3.95061 7.98318 3.65342 8.05001 3.36784C8.11716 3.08087 8.28592 2.8043 8.55094 2.57904L8.22711 2.19807L8.55094 2.57904C8.81668 2.35316 9.16419 2.19238 9.55263 2.12671C9.94099 2.06105 10.3429 2.09521 10.7049 2.22268C11.067 2.35015 11.364 2.56177 11.5667 2.81956C11.7683 3.07601 11.8686 3.36717 11.8686 3.65621H11.8685L11.8687 3.666L11.8697 3.7194C11.8669 4.45919 11.1468 5.18707 10.0819 5.21735Z" fill="black"/>
<path d="M5.54542 5.13831C5.79374 5.67772 6.16249 6.15062 6.61759 6.53827C3.67314 7.65853 1.5824 10.1556 1.56202 13.136H1.56201V13.1394L1.56198 18.5523L1.56204 18.5576C1.56854 19.1663 1.8562 19.7288 2.32905 20.1309C2.79954 20.5311 3.42123 20.7478 4.05771 20.7531L4.05771 20.7531H4.06181H5.6999H6.1999V20.2531V17.3156C6.1999 16.5064 6.57743 15.7102 7.2846 15.1091C7.99423 14.506 8.97178 14.1564 10.0048 14.1564C11.0378 14.1564 12.0153 14.506 12.725 15.1091C13.4321 15.7102 13.8097 16.5064 13.8097 17.3156V20.2531V20.7531H14.3097L15.9466 20.7531L15.95 20.7531C16.5871 20.7488 17.2097 20.5324 17.681 20.1321C18.1545 19.7298 18.4426 19.1667 18.4487 18.5573H18.4487V18.5523V13.1923V13.1921C18.4479 11.6169 17.8483 10.095 16.7573 8.85191C15.8786 7.85074 14.7193 7.07291 13.4022 6.5812C13.8594 6.19044 14.2249 5.71796 14.4681 5.18825L18.7988 5.18825L18.8001 5.18825C19.2298 5.18721 19.6548 5.04231 19.9794 4.76637C20.3065 4.48837 20.5104 4.09267 20.5119 3.65886L20.5119 3.64697L20.5114 3.6351C20.4921 3.19941 20.2804 2.8049 19.9495 2.52344L19.6255 2.90426L19.9495 2.52343C19.6207 2.24368 19.1935 2.08977 18.7564 2.07548L18.7483 2.07521H18.7401H18.7378H18.6683L18.6649 2.07619H14.3948C13.6475 0.525797 11.909 -0.5 9.94257 -0.5C7.96831 -0.5 6.22277 0.53441 5.48772 2.07619H1.21301C0.782584 2.07619 0.35663 2.22081 0.0314595 2.49721C-0.296184 2.77571 -0.5 3.17253 -0.5 3.60725C-0.5 4.04197 -0.296184 4.43879 0.0314595 4.71729C0.35663 4.99369 0.782584 5.13831 1.21301 5.13831H5.54542ZM10.0819 5.21735H9.94372H9.94027V5.21833C9.54371 5.21795 9.16123 5.11753 8.84167 4.93603C8.52177 4.75434 8.28593 4.50384 8.15069 4.22632C8.01633 3.95061 7.98318 3.65342 8.05001 3.36784C8.11716 3.08087 8.28592 2.8043 8.55094 2.57904L8.22711 2.19807L8.55094 2.57904C8.81668 2.35316 9.16419 2.19238 9.55263 2.12671C9.94099 2.06105 10.3429 2.09521 10.7049 2.22268C11.067 2.35015 11.364 2.56177 11.5667 2.81956C11.7683 3.07601 11.8686 3.36717 11.8686 3.65621H11.8685L11.8687 3.666L11.8697 3.7194C11.8669 4.45919 11.1468 5.18707 10.0819 5.21735Z" stroke="black"/>
<path d="M5.54542 5.13831C5.79374 5.67772 6.16249 6.15062 6.61759 6.53827C3.67314 7.65853 1.5824 10.1556 1.56202 13.136H1.56201V13.1394L1.56198 18.5523L1.56204 18.5576C1.56854 19.1663 1.8562 19.7288 2.32905 20.1309C2.79954 20.5311 3.42123 20.7478 4.05771 20.7531L4.05771 20.7531H4.06181H5.6999H6.1999V20.2531V17.3156C6.1999 16.5064 6.57743 15.7102 7.2846 15.1091C7.99423 14.506 8.97178 14.1564 10.0048 14.1564C11.0378 14.1564 12.0153 14.506 12.725 15.1091C13.4321 15.7102 13.8097 16.5064 13.8097 17.3156V20.2531V20.7531H14.3097L15.9466 20.7531L15.95 20.7531C16.5871 20.7488 17.2097 20.5324 17.681 20.1321C18.1545 19.7298 18.4426 19.1667 18.4487 18.5573H18.4487V18.5523V13.1923V13.1921C18.4479 11.6169 17.8483 10.095 16.7573 8.85191C15.8786 7.85074 14.7193 7.07291 13.4022 6.5812C13.8594 6.19044 14.2249 5.71796 14.4681 5.18825L18.7988 5.18825L18.8001 5.18825C19.2298 5.18721 19.6548 5.04231 19.9794 4.76637C20.3065 4.48837 20.5104 4.09267 20.5119 3.65886L20.5119 3.64697L20.5114 3.6351C20.4921 3.19941 20.2804 2.8049 19.9495 2.52344L19.6255 2.90426L19.9495 2.52343C19.6207 2.24368 19.1935 2.08977 18.7564 2.07548L18.7483 2.07521H18.7401H18.7378H18.6683L18.6649 2.07619H14.3948C13.6475 0.525797 11.909 -0.5 9.94257 -0.5C7.96831 -0.5 6.22277 0.53441 5.48772 2.07619H1.21301C0.782584 2.07619 0.35663 2.22081 0.0314595 2.49721C-0.296184 2.77571 -0.5 3.17253 -0.5 3.60725C-0.5 4.04197 -0.296184 4.43879 0.0314595 4.71729C0.35663 4.99369 0.782584 5.13831 1.21301 5.13831H5.54542ZM10.0819 5.21735H9.94372H9.94027V5.21833C9.54371 5.21795 9.16123 5.11753 8.84167 4.93603C8.52177 4.75434 8.28593 4.50384 8.15069 4.22632C8.01633 3.95061 7.98318 3.65342 8.05001 3.36784C8.11716 3.08087 8.28592 2.8043 8.55094 2.57904L8.22711 2.19807L8.55094 2.57904C8.81668 2.35316 9.16419 2.19238 9.55263 2.12671C9.94099 2.06105 10.3429 2.09521 10.7049 2.22268C11.067 2.35015 11.364 2.56177 11.5667 2.81956C11.7683 3.07601 11.8686 3.36717 11.8686 3.65621H11.8685L11.8687 3.666L11.8697 3.7194C11.8669 4.45919 11.1468 5.18707 10.0819 5.21735Z" stroke="white"/>
</g>
<g clip-path="url(#clip1_56_75)">
<path d="M14.3459 19.5321C14.196 19.5321 14.0645 19.5329 13.9475 19.5337C13.758 19.5348 13.6064 19.5358 13.4756 19.5326C13.3735 19.5302 13.3006 19.5254 13.2469 19.5185C13.239 19.5175 13.2319 19.5164 13.2254 19.5154C13.2115 19.4581 13.1961 19.362 13.1751 19.1897C13.1469 18.9034 13.1487 18.6154 13.1804 18.3297C13.9616 18.3361 14.7407 18.3925 16.1452 18.7777C16.6715 18.9248 17.1751 19.1306 17.6452 19.3896C16.5483 19.4819 15.4475 19.5294 14.3459 19.5321ZM14.3459 19.5321C14.346 19.5321 14.3462 19.5321 14.3463 19.5321V20.0321M14.3459 19.5321C14.3456 19.5321 14.3454 19.5321 14.3451 19.5321L14.3463 20.0321M14.3463 20.0321C15.6773 20.0289 17.0071 19.961 18.3304 19.8286L12.7158 18.039C12.6507 18.4379 12.638 18.8427 12.678 19.2445C12.7747 20.0408 12.8262 20.0405 13.9623 20.0336C14.0786 20.0329 14.2062 20.0321 14.3463 20.0321ZM42.8952 19.1512L42.8956 19.1512C42.9398 18.8791 42.9558 18.604 42.9435 18.3295C42.192 18.3207 41.3761 18.3985 39.9927 18.778L39.9914 18.7783C39.4624 18.922 38.9569 19.1275 38.4869 19.389C39.5861 19.4817 40.6892 19.5294 41.7931 19.5321C41.7933 19.5321 41.7936 19.5321 41.7939 19.5321L41.7927 20.0321C42.7223 20.0321 43.0554 20.0558 43.2039 19.9017C43.3041 19.7977 43.3204 19.6128 43.3791 19.285L42.8952 19.1512ZM42.8952 19.1512C42.8771 19.2498 42.8643 19.3249 42.8542 19.3847C42.8447 19.4411 42.8374 19.4839 42.8301 19.5199L42.8952 19.1512ZM12.367 15.3934C12.2542 15.4464 12.1349 15.5029 12.0138 15.561C11.7284 15.6981 11.4291 15.846 11.1803 15.9785C11.0561 16.0446 10.9401 16.1092 10.8427 16.1684C10.7548 16.2217 10.6506 16.2892 10.573 16.3615C10.4583 16.4682 10.3881 16.6064 10.3432 16.7118C10.2935 16.8288 10.2503 16.9658 10.212 17.1156C10.1352 17.4161 10.0673 17.8099 10.0105 18.2861C9.89651 19.2411 9.82208 20.5701 9.82208 22.2352C9.82208 23.9011 9.89659 25.5642 9.97087 26.809C10.008 27.4318 10.0452 27.9511 10.0731 28.3149C10.0871 28.4968 10.0987 28.6399 10.1069 28.7378L10.1164 28.8498L10.119 28.8789L10.1196 28.8864L10.1198 28.8884L10.1198 28.889L10.1199 28.8891L10.6179 28.8446L10.1199 28.8892L10.1606 29.3446H10.6179H11.0194C11.0241 29.3967 11.0298 29.4466 11.0366 29.4941C11.0621 29.6728 11.1081 29.8557 11.2044 30.0153C11.3113 30.1924 11.4635 30.3131 11.6452 30.3793C11.806 30.438 11.9699 30.4462 12.0968 30.4462H18.0126C18.1394 30.4462 18.3035 30.438 18.4644 30.379C18.6466 30.3122 18.7983 30.1905 18.9042 30.0131C18.9994 29.8535 19.0444 29.6708 19.0693 29.4927C19.0759 29.4456 19.0814 29.3963 19.086 29.3446H37.053C37.0575 29.3963 37.063 29.4456 37.0696 29.4927C37.0946 29.6708 37.1396 29.8535 37.2348 30.0131C37.3407 30.1905 37.4924 30.3122 37.6746 30.379C37.8355 30.438 37.9996 30.4462 38.1263 30.4462H44.19C44.3204 30.4462 44.4836 30.4236 44.6418 30.3284C44.8036 30.2311 44.9099 30.0884 44.9784 29.9371C45.0519 29.7745 45.0931 29.5751 45.1143 29.3446H45.5211H45.9792L46.0192 28.8883L45.5211 28.8446L46.0192 28.8882L46.0192 28.8881L46.0192 28.8875L46.0194 28.8855L46.0201 28.8779L46.0226 28.8483L46.0321 28.7342C46.0403 28.6347 46.0519 28.4892 46.0659 28.3046C46.0938 27.9356 46.1309 27.41 46.1681 26.7829C46.2424 25.5299 46.3169 23.8668 46.3169 22.2352C46.3169 20.5993 46.2235 19.2867 46.1001 18.3329C46.0386 17.8565 45.9689 17.4645 45.898 17.1636C45.8329 16.8871 45.7531 16.6234 45.6456 16.4566C45.561 16.3253 45.4309 16.2269 45.3456 16.1669C45.244 16.0955 45.1231 16.0232 44.9972 15.9534C44.7442 15.8134 44.4364 15.6649 44.1444 15.5313C44.0216 15.4751 43.9002 15.4209 43.785 15.3703C43.9135 15.1353 43.955 14.8506 43.955 14.5243C43.955 14.3229 43.955 14.1322 43.9439 13.9697C43.9332 13.8117 43.9097 13.6303 43.8371 13.4639C43.7548 13.275 43.6153 13.1192 43.4118 13.025C43.2316 12.9415 43.0354 12.9227 42.859 12.9227H41.1636C41.0919 12.7759 41.0232 12.6345 40.957 12.4982C40.5002 11.5577 40.1627 10.863 39.7677 10.3258C39.2541 9.62735 38.6474 9.19131 37.6357 8.72196L37.6354 8.7218C36.2571 8.08367 34.3216 7.76333 32.5361 7.59737C30.7357 7.43004 29.0263 7.41493 28.0695 7.41493C27.1127 7.41493 25.4032 7.43004 23.6032 7.59737C21.8181 7.76331 19.8831 8.08362 18.5059 8.72175C17.5005 9.18692 16.9422 9.57131 16.4521 10.2519C16.2199 10.5742 16.0095 10.9538 15.7699 11.4119C15.6827 11.5787 15.592 11.7551 15.4942 11.9453C15.3455 12.2347 15.1804 12.5559 14.9866 12.9227H13.2755C13.0999 12.9227 12.904 12.9416 12.724 13.0256C12.5207 13.1205 12.3822 13.2768 12.3007 13.4651C12.2288 13.6312 12.2056 13.8122 12.195 13.97C12.184 14.1323 12.184 14.3228 12.184 14.5243C12.184 14.8614 12.2282 15.1541 12.367 15.3934ZM36.2829 24.3548C36.2836 24.3758 36.2793 24.4444 36.2206 24.5816L36.219 24.5813L36.0221 25.0399H20.1235C20.0632 24.9166 19.9777 24.752 19.8562 24.53L19.8558 24.5295C19.8135 24.4524 19.8134 24.416 19.8134 24.4121L19.8135 24.4104L19.8136 24.4099L19.8136 24.4099L19.8137 24.4095C19.8138 24.4092 19.8154 24.4046 19.822 24.3956C19.8582 24.3455 19.9753 24.2531 20.235 24.1663L20.2355 24.1661C21.3614 23.7884 24.6065 22.7352 28.0695 22.7352C31.5568 22.7352 34.8569 23.6516 35.8757 24.1425L35.8761 24.1427C35.9321 24.1696 35.9924 24.1968 36.0392 24.2183C36.0897 24.2415 36.1317 24.2614 36.1692 24.2811C36.2397 24.3181 36.2705 24.3426 36.2829 24.3548ZM17.7461 14.8787C17.7923 14.7706 17.838 14.6677 17.8914 14.5625L17.8917 14.5619C18.1901 13.9714 18.4906 13.3826 18.8578 12.8721C19.223 12.3645 19.6321 11.9667 20.1285 11.7366L20.1285 11.7366C20.9269 11.3665 22.2013 11.0813 23.6603 10.891C25.1065 10.7023 26.6874 10.6125 28.0695 10.6125C29.4517 10.6125 31.0326 10.7016 32.4787 10.89C33.9378 11.0799 35.2118 11.3651 36.0098 11.7363L36.0104 11.7366C36.5066 11.9666 36.9149 12.3643 37.2798 12.8722C37.6469 13.3829 37.9472 13.9714 38.2475 14.5623C38.3008 14.6677 38.3463 14.7705 38.3924 14.8787H17.7461Z" fill="black" stroke="white"/>
</g>
<defs>
<clipPath id="clip0_56_75">
<rect width="19.5833" height="23.5" fill="white"/>
</clipPath>
<clipPath id="clip1_56_75">
<rect width="37.8611" height="35.25" fill="white" transform="translate(9.13892 1.30556)"/>
</clipPath>
</defs>
</svg>
