<svg width="45" height="52" viewBox="0 0 45 52" fill="none" xmlns="http://www.w3.org/2000/svg">
<path d="M22.5 12.3348C15.1975 12.3348 9.26116 18.2712 9.25112 25.5737C9.25112 28.0748 9.95424 30.5156 11.2801 32.615L11.5915 33.1172L10.2556 37.9989L15.2679 36.683L15.75 36.9743C17.779 38.1797 20.1094 38.8226 22.49 38.8226H22.5C29.7924 38.8226 35.8895 32.8862 35.8895 25.5837C35.8895 22.048 34.3627 18.7232 31.8616 16.2221C29.3504 13.7109 26.0357 12.3348 22.5 12.3348ZM30.2846 31.2589C29.9531 32.1931 28.3661 33.0368 27.6027 33.1473C26.3371 33.3382 25.3527 33.2377 22.8315 32.1529C18.8438 30.4252 16.2321 26.4074 16.0312 26.1462C15.8304 25.8851 14.404 23.9866 14.404 22.0279C14.404 20.0692 15.4286 19.1049 15.8002 18.7031C16.1618 18.3013 16.5937 18.2009 16.865 18.2009C17.1261 18.2009 17.3973 18.2009 17.6283 18.2109C17.8694 18.221 18.2009 18.1205 18.5223 18.894C18.8538 19.6875 19.6473 21.6462 19.7478 21.8471C19.8482 22.048 19.9185 22.279 19.7779 22.5402C19.0145 24.067 18.2009 24.0067 18.6127 24.7098C20.1496 27.3516 21.6864 28.2656 24.0268 29.4409C24.4286 29.6418 24.6596 29.6116 24.8906 29.3404C25.1217 29.0793 25.885 28.1752 26.1462 27.7835C26.4074 27.3817 26.6786 27.452 27.0402 27.5826C27.4018 27.7132 29.3605 28.6775 29.7623 28.8784C30.1641 29.0792 30.4252 29.1797 30.5257 29.3404C30.6161 29.5313 30.6161 30.3348 30.2846 31.2589ZM40.1786 3.21429H4.82143C2.1596 3.21429 0 5.37389 0 8.03572V43.3929C0 46.0547 2.1596 48.2143 4.82143 48.2143H40.1786C42.8404 48.2143 45 46.0547 45 43.3929V8.03572C45 5.37389 42.8404 3.21429 40.1786 3.21429ZM22.49 41.5045C19.8181 41.5045 17.1964 40.8315 14.8761 39.5659L6.42857 41.7857L8.68862 33.529C7.29241 31.1183 6.55915 28.3761 6.55915 25.5636C6.5692 16.7846 13.7109 9.64287 22.49 9.64287C26.7489 9.64287 30.7467 11.3002 33.76 14.3136C36.7634 17.327 38.5714 21.3248 38.5714 25.5837C38.5714 34.3627 31.269 41.5045 22.49 41.5045Z" fill="#4ECB71"/>
</svg>
