<svg width="1080" height="696" viewBox="0 0 1080 696" fill="none" xmlns="http://www.w3.org/2000/svg">
<g clip-path="url(#clip0_172_4)" filter="url(#filter0_f_172_4)">
<rect width="1080" height="671" fill="white"/>
<path fill-rule="evenodd" clip-rule="evenodd" d="M1139.92 43.7716C1179.84 48.175 1213.34 71.9439 1252.69 80.0003C1314.12 92.5777 1388.96 62.9087 1435.98 104.388C1480.52 143.674 1472.17 215.961 1474.13 275.319C1476.13 336.174 1493.61 413.162 1447.46 452.878C1396.79 496.487 1313.03 442.881 1250.85 467.464C1202.25 486.684 1192.06 570.783 1139.92 574.481C1088.95 578.096 1063.56 509.785 1019.51 483.87C975.964 458.245 918.254 459.966 883.295 423.482C845.466 384.002 809.746 329.087 819.683 275.319C829.828 220.431 896.245 197.926 932.783 155.729C961.478 122.59 973.25 74.2767 1011.81 53.4331C1050.14 32.7182 1096.62 38.9955 1139.92 43.7716Z" fill="#58B7F1" fill-opacity="0.8"/>
<path fill-rule="evenodd" clip-rule="evenodd" d="M-119.118 220.897C-67.4513 230.058 -40.3934 287.903 6.8165 310.808C59.186 336.216 140.378 311.923 170.792 361.553C200.932 410.736 141.913 471.268 140.485 528.933C139.107 584.585 193.938 645.57 162.621 691.596C130.505 738.796 50.9731 709.528 0.0462952 735.332C-46.821 759.08 -68.3944 820.656 -119.118 834.351C-173.059 848.916 -232.038 835.975 -282.296 811.565C-334.278 786.319 -392.536 750.905 -406.426 694.81C-420.648 637.373 -349.493 588.039 -352.279 528.933C-355.294 465.009 -440.503 415.184 -422.506 353.772C-405.792 296.738 -328.217 284.901 -273.776 261.057C-224.143 239.319 -172.472 211.437 -119.118 220.897Z" fill="#58B7F1" fill-opacity="0.8"/>
</g>
<defs>
<filter id="filter0_f_172_4" x="-25" y="-25" width="1130" height="721" filterUnits="userSpaceOnUse" color-interpolation-filters="sRGB">
<feFlood flood-opacity="0" result="BackgroundImageFix"/>
<feBlend mode="normal" in="SourceGraphic" in2="BackgroundImageFix" result="shape"/>
<feGaussianBlur stdDeviation="12.5" result="effect1_foregroundBlur_172_4"/>
</filter>
<clipPath id="clip0_172_4">
<rect width="1080" height="671" fill="white"/>
</clipPath>
</defs>
</svg>
