<svg width="180" height="507" viewBox="0 0 180 507" fill="none" xmlns="http://www.w3.org/2000/svg">
<path fill-rule="evenodd" clip-rule="evenodd" d="M-119.118 1.89725C-67.4513 11.058 -40.3934 68.9027 6.8165 91.8076C59.186 117.216 140.378 92.9231 170.792 142.553C200.932 191.736 141.913 252.268 140.485 309.933C139.107 365.585 193.938 426.57 162.621 472.596C130.505 519.796 50.9731 490.528 0.0462952 516.332C-46.821 540.08 -68.3944 601.656 -119.118 615.351C-173.059 629.916 -232.038 616.975 -282.296 592.565C-334.278 567.319 -392.536 531.905 -406.426 475.81C-420.648 418.373 -349.493 369.039 -352.279 309.933C-355.294 246.009 -440.503 196.184 -422.506 134.772C-405.792 77.7377 -328.217 65.9007 -273.776 42.0573C-224.143 20.3191 -172.472 -7.56253 -119.118 1.89725Z" fill="#58B7F1" fill-opacity="0.8"/>
</svg>
