<svg width="262" height="536" viewBox="0 0 262 536" fill="none" xmlns="http://www.w3.org/2000/svg">
<path fill-rule="evenodd" clip-rule="evenodd" d="M321.92 4.77161C361.844 9.17499 395.338 32.9439 434.688 41.0003C496.118 53.5777 570.957 23.9087 617.983 65.3877C662.522 104.674 654.17 176.961 656.126 236.319C658.13 297.174 675.612 374.162 629.461 413.878C578.788 457.487 495.026 403.881 432.855 428.464C384.246 447.684 374.06 531.783 321.92 535.481C270.947 539.096 245.556 470.785 201.514 444.87C157.964 419.245 100.254 420.966 65.2954 384.482C27.4661 345.002 -8.25443 290.087 1.68325 236.319C11.828 181.431 78.2447 158.926 114.783 116.729C143.478 83.5895 155.25 35.2767 193.814 14.4331C232.14 -6.2818 278.617 -0.00450039 321.92 4.77161Z" fill="#58B7F1" fill-opacity="0.8"/>
</svg>
